<?xml version="1.0" encoding="UTF-8"?>
<svg id="Capa_2" data-name="Capa 2" xmlns="http://www.w3.org/2000/svg" viewBox="0 0 179.63 101.85">
  <defs>
    <style>
      .cls-1 {
        fill: #fff;
      }

      .cls-2 {
        fill: #e7303e;
      }
    </style>
  </defs>
  <g id="Capa_1-2" data-name="Capa 1">
    <g>
      <g>
        <path class="cls-1" d="M166.89,80.55H12.74c-.78,0-1.4.63-1.4,1.4v.64c0,.78.63,1.4,1.4,1.4h3.21c.37,0,.72.14.98.4,1.39,1.37,5.87,5.77,5.94,5.84,0,0,.29.28.29.28h129.43s.44,0,.44,0c.37,0,.73-.14.99-.4l.4-.39,5.41-5.32c.26-.26.62-.4.98-.4h6.07c.78,0,1.4-.63,1.4-1.4v-.64c0-.78-.63-1.4-1.4-1.4Z"/>
        <path class="cls-1" d="M167.53,69.24v-.39c.05-1.56.03-2.96-.05-4.28-1.78-30.13-29.42-54.05-65.53-57.84-3.38-4.14-8.78-6.74-14.96-6.74-.42,0-.83.01-1.25.04-4.51.27-8.78,1.98-12.03,4.81-1.28,1.12-2.36,2.38-3.24,3.75C36.81,16.2,12.91,40.95,12.11,69.24c-6.73.33-12.11,5.9-12.11,12.71v.64c0,6.73,5.24,12.26,11.86,12.71,1.55,1.52,6.66,6.55,6.66,6.55h134.52c3.36,0,6.53-1.3,8.93-3.66l2.91-2.86h2.01c7.03,0,12.74-5.72,12.74-12.74v-.64c0-6.81-5.37-12.37-12.1-12.71Z"/>
        <path class="cls-1" d="M23.83,76.42l132.37-7.84c.03-1.11.02-2.22-.04-3.34-1.57-26.47-28.62-46.74-61.92-47.66.03-.27.05-.55.04-.83-.19-3.23-3.72-5.65-7.88-5.4-4.16.25-7.38,3.06-7.19,6.29.02.28.07.56.13.82-32.96,4.84-57.43,28.16-55.86,54.63.07,1.12.19,2.22.35,3.32ZM33.97,56.48c5.21-14.86,20.1-26.87,37.69-31.35,4.05-1.03,6.1,4.14,2.05,5.17-8.04,2.05-15.84,5.64-21.54,10.94-5.22,4.86-9.6,10.02-11.81,16.32-.5,1.43-2.08,2.45-3.91,2.15-1.64-.28-2.98-1.8-2.48-3.23Z"/>
      </g>
      <g>
        <path class="cls-2" d="M166.89,80.55H12.74c-.78,0-1.4.63-1.4,1.4v.64c0,.78.63,1.4,1.4,1.4h3.21c.37,0,.72.14.98.4,1.39,1.37,5.87,5.77,5.94,5.84,0,0,.29.28.29.28h129.43s.44,0,.44,0c.37,0,.73-.14.99-.4l.4-.39,5.41-5.32c.26-.26.62-.4.98-.4h6.07c.78,0,1.4-.63,1.4-1.4v-.64c0-.78-.63-1.4-1.4-1.4Z"/>
        <path class="cls-2" d="M23.83,76.42l132.37-7.84c.03-1.11.02-2.22-.04-3.34-1.57-26.47-28.62-46.74-61.92-47.66.03-.27.05-.55.04-.83-.19-3.23-3.72-5.65-7.88-5.4-4.16.25-7.38,3.06-7.19,6.29.02.28.07.56.13.82-32.96,4.84-57.43,28.16-55.86,54.63.07,1.12.19,2.22.35,3.32ZM33.97,56.48c5.21-14.86,20.1-26.87,37.69-31.35,4.05-1.03,6.1,4.14,2.05,5.17-8.04,2.05-15.84,5.64-21.54,10.94-5.22,4.86-9.6,10.02-11.81,16.32-.5,1.43-2.08,2.45-3.91,2.15-1.64-.28-2.98-1.8-2.48-3.23Z"/>
      </g>
    </g>
  </g>
</svg>