<?xml version="1.0" encoding="UTF-8"?>
<svg id="Capa_2" data-name="Capa 2" xmlns="http://www.w3.org/2000/svg" viewBox="0 0 179.63 146.85">
  <defs>
    <style>
      .cls-1 {
        fill: #f6f6f6;
      }

      .cls-2 {
        fill: #e7303e;
      }
    </style>
  </defs>
  <g id="Capa_1-2" data-name="Capa 1">
    <g>
      <path class="cls-1" d="M44.16,133.48c-5.33,0-10.11-.79-14.19-2.35-5.44-2.08-9.31-5.25-11.5-9.41-1.75-3.34-2.6-7.36-2.6-12.31,0-2.7.78-5.2,2.16-7.32-1.73-3.09-2.61-6.74-2.61-10.84,0-5.75,1.32-10.25,4.04-13.76,2.52-3.26,6.17-5.68,10.84-7.21,3.66-1.2,7.76-1.78,12.52-1.78,5.09,0,9.46.62,13.35,1.89,5.28,1.73,8.99,4.32,11.35,7.92,2.16,3.3,3.16,7.45,3.16,13.06,0,2.38-.68,4.61-1.86,6.53,2.05,3.52,3.09,7.88,3.09,13s-1.13,9.51-3.44,12.85c-2.39,3.45-6.04,5.97-11.16,7.72-3.89,1.33-8.32,2-13.16,2Z"/>
      <path class="cls-1" d="M81.08,133.23c-3.98,0-7.64-.44-10.89-1.32-3.91-1.05-7.18-2.68-9.73-4.83-2.76-2.33-4.75-5.08-5.94-8.2-1.01-2.65-1.48-5.73-1.48-9.68v-9.71c0-5.14,1.18-9.55,3.51-13.1,2.48-3.79,6.21-6.59,11.09-8.33,3.73-1.33,7.92-2,12.46-2,5.55,0,10.2.81,14.22,2.49,4.9,2.04,8.56,5.08,10.88,9.02,2.1,3.58,3.12,7.92,3.12,13.24v3.55c0,.66-.05,1.31-.16,1.94.1.63.16,1.28.16,1.94v1.59c0,3.34-.35,5.98-1.11,8.29-.97,2.96-2.79,5.66-5.56,8.26-2.61,2.45-5.81,4.26-9.53,5.4-3.16.97-6.77,1.44-11.03,1.44Z"/>
      <path class="cls-1" d="M102.82,132.63c-6.92,0-12.55-5.47-12.55-12.2v-31.55c0-6.73,5.63-12.2,12.55-12.2h11.67c1.12,0,2.21.14,3.27.42,1.07-.33,2.18-.58,3.33-.75.64-.1,1.29-.15,1.94-.15,6.91,0,12.53,5.47,12.53,12.2v9.88c0,5.35-3.48,9.87-8.4,11.53v10.62c0,6.73-5.63,12.2-12.55,12.2h-11.78Z"/>
      <path class="cls-1" d="M129.01,132.63c-6.92,0-12.55-5.47-12.55-12.2v-38.88c0-6.73,5.63-12.2,12.55-12.2h18.47c9.38,0,16.73,6.67,16.73,15.18v3.42c0,2.18-.59,4.23-1.63,6,.33,1.09.5,2.23.5,3.42v6c0,5.58-3.87,10.3-9.14,11.75v2.77c0,8.26-7.07,14.74-16.1,14.74h-8.83Z"/>
      <path class="cls-1" d="M18.52,146.85s-5.11-5.03-6.66-6.55c-6.62-.45-11.86-5.98-11.86-12.71v-.64c0-7.03,5.72-12.74,12.74-12.74h154.14c7.03,0,12.74,5.72,12.74,12.74v.64c0,7.03-5.72,12.74-12.74,12.74h-2.01l-2.92,2.87c-2.39,2.35-5.56,3.64-8.92,3.64H23.6s-5.07,0-5.07,0Z"/>
      <path class="cls-1" d="M12.61,78.02c-.22-1.58-.37-2.93-.44-4.25-1.75-29.61,21.98-56.19,56.4-64.72,1.17-.29,2.2-.97,2.96-1.92.65-.81,1.38-1.58,2.19-2.28,3.24-2.84,7.51-4.55,12.03-4.82.42-.03.84-.04,1.25-.04,5.49,0,10.37,2.05,13.75,5.41.86.85,1.96,1.41,3.16,1.56,35.15,4.43,61.83,28.02,63.58,57.61.08,1.32.1,2.67.06,4.27l-.13,5.58c-.06,2.75-2.22,4.99-4.97,5.15l-143.52,8.5c-2.74.16-5.15-1.81-5.54-4.53l-.79-5.52Z"/>
      <path class="cls-2" d="M39.76,106.74h-8.81c-2.06,0-3.73,1.19-3.73,2.66,0,3.04.43,5.39,1.3,7.05.87,1.66,2.7,3.02,5.5,4.09,2.8,1.07,6.18,1.6,10.14,1.6,3.61,0,6.77-.46,9.49-1.39,2.72-.93,4.55-2.08,5.5-3.45.95-1.37,1.42-3.5,1.42-6.39,0-3.98-.86-6.86-2.57-8.65-1.71-1.79-5.86-4.08-12.45-6.87-2.3-.97-3.69-1.8-4.18-2.48-.51-.69-.77-1.71-.77-3.06,0-1.05.23-1.84.69-2.36.46-.52,1.13-.78,2.02-.78.82,0,1.41.19,1.76.58.35.38.53,1.28.53,2.68v2.15c0,.48.54.86,1.21.86h10.29c1.24,0,2.25-.72,2.25-1.6,0-3.23-.44-5.51-1.32-6.86-.88-1.35-2.67-2.46-5.38-3.35-2.71-.89-5.98-1.33-9.83-1.33-3.52,0-6.52.41-9,1.22-2.48.81-4.28,1.94-5.4,3.37-1.11,1.44-1.67,3.71-1.67,6.82,0,2.16.39,3.93,1.18,5.32.79,1.39,1.78,2.47,2.97,3.26,1.2.79,3.63,2.05,7.31,3.79,3.68,1.72,5.99,2.95,6.93,3.69.91.74,1.37,2.3,1.37,4.69,0,1.09-.24,1.91-.72,2.46-.48.55-1.21.83-2.2.83s-1.67-.22-2.06-.65c-.39-.43-.58-1.41-.58-2.93v-4.08c0-.48-.54-.86-1.21-.86Z"/>
      <path class="cls-2" d="M79.79,105.24h15.97c.67,0,1.21-.39,1.21-.86v-3.55c0-3.23-.52-5.73-1.56-7.51-1.04-1.78-2.86-3.21-5.45-4.29-2.59-1.08-5.88-1.62-9.86-1.62-3.26,0-6.14.45-8.65,1.34-2.51.89-4.31,2.18-5.41,3.86-1.1,1.68-1.65,3.97-1.65,6.88v9.71c0,2.47.25,4.36.74,5.66.49,1.3,1.38,2.48,2.65,3.56,1.28,1.08,3.06,1.93,5.36,2.55,2.3.62,4.94.93,7.95.93s5.67-.31,7.72-.94c2.05-.63,3.74-1.57,5.08-2.82,1.34-1.25,2.19-2.43,2.55-3.54.36-1.1.54-2.68.54-4.74v-1.59c0-.48-.54-.86-1.21-.86h-11.05c-.67,0-1.21.39-1.21.86v3.53c0,1.66-.18,2.77-.54,3.35-.36.58-1.08.87-2.16.87-.87,0-1.45-.22-1.76-.65-.3-.43-.46-1.4-.46-2.91v-6.33c0-.48.54-.86,1.21-.86ZM78.58,97.39c0-1.87.12-3.02.35-3.45.23-.43.84-.64,1.83-.64.8,0,1.32.25,1.58.75.26.5.39,1.61.39,3.34v1.57c0,.48-.54.86-1.21.86h-1.73c-.67,0-1.21-.39-1.21-.86v-1.57Z"/>
      <path class="cls-2" d="M122.78,87.55c-1.9.29-3.56.97-4.97,2.05-.8.61-2.23.19-2.12-.64.07-.51-.49-.94-1.2-.94h-11.67c-.67,0-1.21.39-1.21.86v31.55c0,.48.54.86,1.21.86h11.78c.67,0,1.21-.39,1.21-.86v-12.28c0-3.23.14-5.29.42-6.18.28-.89,1.03-1.59,2.25-2.09,1.03-.42,2.56-.67,4.58-.73.64-.02,1.15-.4,1.15-.86v-9.88c0-.54-.7-.96-1.44-.85Z"/>
      <path class="cls-2" d="M143.81,88.81h7.85c.67,0,1.21-.39,1.21-.86v-3.42c0-2.12-2.41-3.84-5.39-3.84h-18.47c-.67,0-1.21.39-1.21.86v38.88c0,.48.54.86,1.21.86h8.82c2.63,0,4.77-1.52,4.77-3.4v-12.79c0-.48.54-.86,1.21-.86h6.72c.67,0,1.21-.39,1.21-.86v-6c0-.48-.54-.86-1.21-.86h-6.72c-.67,0-1.21-.39-1.21-.86v-5.97c0-.48.54-.86,1.21-.86Z"/>
      <path class="cls-2" d="M166.89,125.55H12.74c-.78,0-1.4.63-1.4,1.4v.64c0,.78.63,1.4,1.4,1.4h3.21c.37,0,.72.14.98.4,1.39,1.37,5.87,5.77,5.94,5.84,0,0,.29.28.29.28h129.43s.44,0,.44,0c.37,0,.73-.14.99-.4l.4-.39,5.41-5.32c.26-.26.62-.4.98-.4h6.07c.78,0,1.4-.63,1.4-1.4v-.64c0-.78-.63-1.4-1.4-1.4Z"/>
      <path class="cls-2" d="M23.83,76.42l132.37-7.84c.03-1.11.02-2.22-.04-3.34-1.57-26.47-28.62-46.74-61.92-47.66.03-.27.05-.55.04-.83-.19-3.23-3.72-5.65-7.88-5.4s-7.38,3.06-7.19,6.29c.02.28.07.56.13.82-32.96,4.84-57.43,28.16-55.86,54.63.07,1.12.19,2.22.35,3.32ZM33.97,56.48c5.21-14.86,20.1-26.87,37.69-31.35,4.05-1.03,6.1,4.14,2.05,5.17-8.04,2.05-15.84,5.64-21.54,10.94-5.22,4.86-9.6,10.02-11.81,16.32-.5,1.43-2.08,2.45-3.91,2.15-1.64-.28-2.98-1.8-2.48-3.23Z"/>
    </g>
  </g>
</svg>